# xmcd
#
# Track frame offsets:
#	150
#	18590
#	43493
#
# Disc length: 826 seconds
#
# Revision: 0
# Processed by: cddbd v1.4PL0 Copyright (c) Steve Scherf et al.
# Submitted via: audiograbber 1.81.03
#
DISCID=24033803
DTITLE=Geoffrey Williams - Blue (single)
DYEAR=1989
DGENRE=Pop
TTITLE0=Blue
TTITLE1=The world is full of other people
TTITLE2=Back in circulation
EXTD=
EXTT0=
EXTT1=
EXTT2=
PLAYORDER=
